<svg xmlns="http://www.w3.org/2000/svg" viewBox="0 0 400 120" width="400" height="120">
  <defs>
    <linearGradient id="nimbleGrad" x1="0%" y1="0%" x2="100%" y2="100%">
      <stop offset="0%" style="stop-color:#f59e0b;stop-opacity:1" />
      <stop offset="100%" style="stop-color:#dc2626;stop-opacity:1" />
    </linearGradient>
    <linearGradient id="nimGrad" x1="0%" y1="0%" x2="100%" y2="0%">
      <stop offset="0%" style="stop-color:#f59e0b;stop-opacity:1" />
      <stop offset="50%" style="stop-color:#fbbf24;stop-opacity:1" />
      <stop offset="100%" style="stop-color:#f59e0b;stop-opacity:1" />
    </linearGradient>
  </defs>
  
  <!-- Lightning bolt icon (nimbleness, speed, energy) -->
  <g transform="translate(8, 28)">
    <!-- Main bolt -->
    <polygon points="28,0 12,52 26,52 0,110 40,44 24,44" fill="url(#nimGrad)" />
    <!-- Bolt outline glow -->
    <polygon points="28,0 12,52 26,52 0,110 40,44 24,44" fill="none" stroke="#fbbf24" stroke-width="1" opacity="0.5" />
    <!-- Small spark dots -->
    <circle cx="42" cy="38" r="3" fill="#fbbf24" opacity="0.8" />
    <circle cx="48" cy="30" r="2" fill="#fbbf24" opacity="0.5" />
    <circle cx="38" cy="48" r="2.5" fill="#fbbf24" opacity="0.6" />
  </g>
  
  <!-- Wordmark: NIMBLE -->
  <g transform="translate(80, 30)">
    <!-- N -->
    <text x="0" y="58" font-family="'Space Grotesk', 'Arial Black', sans-serif" font-size="72" font-weight="900" fill="url(#nimGrad)" letter-spacing="2">N</text>
    <!-- rest of word -->
    <text x="58" y="58" font-family="'Space Grotesk', 'Arial Black', sans-serif" font-size="72" font-weight="800" fill="#e0f2fe" letter-spacing="2">IMBLE</text>
  </g>
  
  <!-- Tagline -->
  <g transform="translate(88, 100)">
    <text x="0" y="0" font-family="'Inter', sans-serif" font-size="13" font-weight="500" fill="#94a3b8" letter-spacing="3">ENGLISH THAT ADAPTS</text>
  </g>
  
  <!-- Playful underline swoosh -->
  <path d="M88,108 Q200,118 340,106" fill="none" stroke="url(#nimbleGrad)" stroke-width="2" stroke-linecap="round" opacity="0.7" />
</svg>